<svg xmlns="http://www.w3.org/2000/svg" viewBox="-101.25 -70.00 610.94 318.80" width="100%" height="100%">
    <!-- Generated with MLC Isometric 3D Heatmap Library -->
    <metadata>
    <rdf:RDF xmlns:rdf="http://www.w3.org/1999/02/22-rdf-syntax-ns#"
             xmlns:dc="http://purl.org/dc/elements/1.1/">
      <rdf:Description rdf:about="">
        <dc:creator>Michael Lechner</dc:creator>
        <dc:date>2026-06-16</dc:date>
        <dc:title>24h Dual-Series Timeline (2 Rows × 24 Hours)</dc:title>
        <dc:description>Generated with MLC Isometric 3D Heatmap Library</dc:description>
      </rdf:Description>
    </rdf:RDF>
  </metadata>
    <style>
        @keyframes iso-grow {
          from {
            transform: scaleY(0);
          }
          to {
            transform: scaleY(1);
          }
        }
        .iso-bar {
          transform-box: fill-box;
          animation: iso-grow 0.6s cubic-bezier(0.16, 1, 0.3, 1) both;
          transition: transform 0.2s cubic-bezier(0.25, 0.46, 0.45, 0.94), filter 0.2s ease;
          cursor: pointer;
        }
        .iso-bar:hover {
          filter: brightness(1.1) drop-shadow(0 4px 6px rgba(0, 0, 0, 0.2));
          transform: translateY(-3px) scaleY(1);
        }
        .iso-face-top, .iso-face-left, .iso-face-right, .iso-bridge-top, .iso-bridge-front {
          transition: fill 0.2s ease;
        }
      </style>
    
    <text x="204.22" y="-56.00" fill="#24292f" font-size="14" font-weight="bold" font-family="sans-serif" text-anchor="middle">24h Dual-Series Timeline (2 Rows × 24 Hours)</text>
    <g>
      <line x1="0.00" y1="0.00" x2="0.00" y2="-50.00" stroke="#e1e4e8" stroke-width="0.5" stroke-dasharray="2,2" />
<line x1="-18.13" y1="8.45" x2="-18.13" y2="-41.55" stroke="#e1e4e8" stroke-width="0.5" stroke-dasharray="2,2" />
<line x1="-36.25" y1="16.90" x2="-36.25" y2="-33.10" stroke="#e1e4e8" stroke-width="0.5" stroke-dasharray="2,2" />
<line x1="0.00" y1="0.00" x2="-36.25" y2="16.90" stroke="#e1e4e8" stroke-width="0.5" />
<text x="-44.25" y="19.90" fill="#57606a" font-size="9" font-family="sans-serif" text-anchor="end">0</text>
<line x1="0.00" y1="-10.00" x2="-36.25" y2="6.90" stroke="#e1e4e8" stroke-width="0.5" />
<text x="-44.25" y="9.90" fill="#57606a" font-size="9" font-family="sans-serif" text-anchor="end">18</text>
<line x1="0.00" y1="-20.00" x2="-36.25" y2="-3.10" stroke="#e1e4e8" stroke-width="0.5" />
<text x="-44.25" y="-0.10" fill="#57606a" font-size="9" font-family="sans-serif" text-anchor="end">36</text>
<line x1="0.00" y1="-30.00" x2="-36.25" y2="-13.10" stroke="#e1e4e8" stroke-width="0.5" />
<text x="-44.25" y="-10.10" fill="#57606a" font-size="9" font-family="sans-serif" text-anchor="end">54</text>
<line x1="0.00" y1="-40.00" x2="-36.25" y2="-23.10" stroke="#e1e4e8" stroke-width="0.5" />
<text x="-44.25" y="-20.10" fill="#57606a" font-size="9" font-family="sans-serif" text-anchor="end">72</text>
<line x1="0.00" y1="-50.00" x2="-36.25" y2="-33.10" stroke="#e1e4e8" stroke-width="0.5" />
<text x="-44.25" y="-30.10" fill="#57606a" font-size="9" font-family="sans-serif" text-anchor="end">90</text>
<g class="iso-col-labels"><text x="21.75" y="-8.87" fill="#57606a" font-size="9" font-family="sans-serif" text-anchor="middle">12AM</text>
<text x="130.51" y="41.84" fill="#57606a" font-size="9" font-family="sans-serif" text-anchor="middle">6AM</text>
<text x="239.27" y="92.55" fill="#57606a" font-size="9" font-family="sans-serif" text-anchor="middle">12PM</text>
<text x="348.02" y="143.27" fill="#57606a" font-size="9" font-family="sans-serif" text-anchor="middle">6PM</text></g>
<polygon class="iso-grid-cell" points="0.00,0.00 -18.13,8.45 0.00,16.90 18.13,8.45" fill="none" stroke="#e1e4e8" stroke-width="0.5" />
<g class="iso-bar" data-col="0" data-row="0" data-value="0" style="animation-delay: 0ms; transform-origin: bottom;">
                <title>Series A, 00:00 — Value: 0</title>
                <polygon points="0.00,1.27 -15.41,8.45 0.00,15.64 15.41,8.45" fill="#fff5f5" stroke="#fff5f5" stroke-width="0.3" stroke-linejoin="round" fill-opacity="1" stroke-opacity="1" />
              </g>
<polygon class="iso-grid-cell" points="-18.13,8.45 -36.25,16.90 -18.13,25.36 0.00,16.90" fill="none" stroke="#e1e4e8" stroke-width="0.5" />
<g class="iso-bar" data-col="0" data-row="1" data-value="0" style="animation-delay: 15ms; transform-origin: bottom;">
                <title>Series B, 00:00 — Value: 0</title>
                <polygon points="-18.13,9.72 -33.53,16.90 -18.13,24.09 -2.72,16.90" fill="#fff5f5" stroke="#fff5f5" stroke-width="0.3" stroke-linejoin="round" fill-opacity="1" stroke-opacity="1" />
              </g>
<polygon class="iso-grid-cell" points="18.13,8.45 0.00,16.90 18.13,25.36 36.25,16.90" fill="none" stroke="#e1e4e8" stroke-width="0.5" />
<g class="iso-bar" data-col="1" data-row="0" data-value="0" style="animation-delay: 15ms; transform-origin: bottom;">
                <title>Series A, 01:00 — Value: 0</title>
                <polygon points="18.13,9.72 2.72,16.90 18.13,24.09 33.53,16.90" fill="#fff5f5" stroke="#fff5f5" stroke-width="0.3" stroke-linejoin="round" fill-opacity="1" stroke-opacity="1" />
              </g>
<polygon class="iso-grid-cell" points="0.00,16.90 -18.13,25.36 0.00,33.81 18.13,25.36" fill="none" stroke="#e1e4e8" stroke-width="0.5" />
<g class="iso-bar" data-col="1" data-row="1" data-value="0" style="animation-delay: 30ms; transform-origin: bottom;">
                <title>Series B, 01:00 — Value: 0</title>
                <polygon points="0.00,18.17 -15.41,25.36 0.00,32.54 15.41,25.36" fill="#fff5f5" stroke="#fff5f5" stroke-width="0.3" stroke-linejoin="round" fill-opacity="1" stroke-opacity="1" />
              </g>
<polygon class="iso-grid-cell" points="36.25,16.90 18.13,25.36 36.25,33.81 54.38,25.36" fill="none" stroke="#e1e4e8" stroke-width="0.5" />
<g class="iso-bar" data-col="2" data-row="0" data-value="12" style="animation-delay: 30ms; transform-origin: bottom;">
        <title>Series A, 02:00 — Value: 12</title>
        <polygon class="iso-face-left" points="34.89,17.54 19.49,24.72 19.49,29.72 34.89,22.54" fill="#d9c9b5" stroke="#d9c9b5" stroke-width="0.3" stroke-linejoin="round" fill-opacity="1" stroke-opacity="1" /><polygon class="iso-face-right" points="53.02,25.99 37.61,33.18 37.61,38.18 53.02,30.99" fill="#b3a695" stroke="#b3a695" stroke-width="0.3" stroke-linejoin="round" fill-opacity="1" stroke-opacity="1" />
        <path class="iso-face-top" d="M 19.49,24.72 C 22.51,25.02 25.53,20.87 28.55,22.28 L 43.96,15.10 C 40.93,13.69 37.91,17.84 34.89,17.54 Z" fill="#ffedd5" stroke="#ffedd5" stroke-width="0.3" fill-opacity="1" stroke-opacity="1" />
        <path class="iso-face-right" d="M 19.49,29.72 L 19.49,24.72 C 22.51,25.02 25.53,20.87 28.55,22.28 L 28.55,27.28 C 25.53,25.87 22.51,30.02 19.49,29.72 Z" fill="#b3a695" stroke="#b3a695" stroke-width="0.3" fill-opacity="1" stroke-opacity="1" />
        <path class="iso-face-top" d="M 28.55,22.28 C 31.57,23.69 34.59,30.66 37.61,33.18 L 53.02,25.99 C 50.00,23.47 46.98,16.51 43.96,15.10 Z" fill="#ffedd5" stroke="#ffedd5" stroke-width="0.3" fill-opacity="1" stroke-opacity="1" />
        <path class="iso-face-right" d="M 28.55,27.28 L 28.55,22.28 C 31.57,23.69 34.59,30.66 37.61,33.18 L 37.61,38.18 C 34.59,35.66 31.57,28.69 28.55,27.28 Z" fill="#b3a695" stroke="#b3a695" stroke-width="0.3" fill-opacity="1" stroke-opacity="1" />
      </g>
<polygon class="iso-grid-cell" points="18.13,25.36 0.00,33.81 18.13,42.26 36.25,33.81" fill="none" stroke="#e1e4e8" stroke-width="0.5" />
<g class="iso-bar" data-col="2" data-row="1" data-value="0" style="animation-delay: 45ms; transform-origin: bottom;">
                <title>Series B, 02:00 — Value: 0</title>
                <polygon points="18.13,26.62 2.72,33.81 18.13,40.99 33.53,33.81" fill="#fff5f5" stroke="#fff5f5" stroke-width="0.3" stroke-linejoin="round" fill-opacity="1" stroke-opacity="1" />
              </g>
<polygon class="iso-grid-cell" points="54.38,25.36 36.25,33.81 54.38,42.26 72.50,33.81" fill="none" stroke="#e1e4e8" stroke-width="0.5" />
<g class="iso-bar" data-col="3" data-row="0" data-value="0" style="animation-delay: 45ms; transform-origin: bottom;">
                <title>Series A, 03:00 — Value: 0</title>
                <polygon points="54.38,26.62 38.97,33.81 54.38,40.99 69.79,33.81" fill="#fff5f5" stroke="#fff5f5" stroke-width="0.3" stroke-linejoin="round" fill-opacity="1" stroke-opacity="1" />
              </g>
<polygon class="iso-grid-cell" points="36.25,33.81 18.13,42.26 36.25,50.71 54.38,42.26" fill="none" stroke="#e1e4e8" stroke-width="0.5" />
<g class="iso-bar" data-col="3" data-row="1" data-value="0" style="animation-delay: 60ms; transform-origin: bottom;">
                <title>Series B, 03:00 — Value: 0</title>
                <polygon points="36.25,35.08 20.85,42.26 36.25,49.45 51.66,42.26" fill="#fff5f5" stroke="#fff5f5" stroke-width="0.3" stroke-linejoin="round" fill-opacity="1" stroke-opacity="1" />
              </g>
<polygon class="iso-grid-cell" points="72.50,33.81 54.38,42.26 72.50,50.71 90.63,42.26" fill="none" stroke="#e1e4e8" stroke-width="0.5" />
<g class="iso-bar" data-col="4" data-row="0" data-value="0" style="animation-delay: 60ms; transform-origin: bottom;">
                <title>Series A, 04:00 — Value: 0</title>
                <polygon points="72.50,35.08 57.10,42.26 72.50,49.45 87.91,42.26" fill="#fff5f5" stroke="#fff5f5" stroke-width="0.3" stroke-linejoin="round" fill-opacity="1" stroke-opacity="1" />
              </g>
<polygon class="iso-grid-cell" points="54.38,42.26 36.25,50.71 54.38,59.17 72.50,50.71" fill="none" stroke="#e1e4e8" stroke-width="0.5" />
<g class="iso-bar" data-col="4" data-row="1" data-value="25" style="animation-delay: 75ms; transform-origin: bottom;">
        <title>Series B, 04:00 — Value: 25</title>
        <polygon class="iso-face-left" points="53.02,42.90 37.61,50.08 37.61,55.08 53.02,47.90" fill="#d8b791" stroke="#d8b791" stroke-width="0.3" stroke-linejoin="round" fill-opacity="1" stroke-opacity="1" /><polygon class="iso-face-right" points="71.15,51.35 55.74,58.53 55.74,63.53 71.15,56.35" fill="#b29777" stroke="#b29777" stroke-width="0.3" stroke-linejoin="round" fill-opacity="1" stroke-opacity="1" />
        <path class="iso-face-top" d="M 37.61,50.08 C 40.63,49.17 43.65,39.01 46.67,40.42 L 62.08,33.23 C 59.06,31.82 56.04,41.99 53.02,42.90 Z" fill="#fed7aa" stroke="#fed7aa" stroke-width="0.3" fill-opacity="1" stroke-opacity="1" />
        <path class="iso-face-right" d="M 37.61,55.08 L 37.61,50.08 C 40.63,49.17 43.65,39.01 46.67,40.42 L 46.67,45.42 C 43.65,44.01 40.63,54.17 37.61,55.08 Z" fill="#b29777" stroke="#b29777" stroke-width="0.3" fill-opacity="1" stroke-opacity="1" />
        <path class="iso-face-top" d="M 46.67,40.42 C 49.70,41.83 52.72,54.81 55.74,58.53 L 71.15,51.35 C 68.12,47.62 65.10,34.64 62.08,33.23 Z" fill="#fed7aa" stroke="#fed7aa" stroke-width="0.3" fill-opacity="1" stroke-opacity="1" />
        <path class="iso-face-right" d="M 46.67,45.42 L 46.67,40.42 C 49.70,41.83 52.72,54.81 55.74,58.53 L 55.74,63.53 C 52.72,59.81 49.70,46.83 46.67,45.42 Z" fill="#b29777" stroke="#b29777" stroke-width="0.3" fill-opacity="1" stroke-opacity="1" />
      </g>
<polygon class="iso-grid-cell" points="90.63,42.26 72.50,50.71 90.63,59.17 108.76,50.71" fill="none" stroke="#e1e4e8" stroke-width="0.5" />
<g class="iso-bar" data-col="5" data-row="0" data-value="0" style="animation-delay: 75ms; transform-origin: bottom;">
                <title>Series A, 05:00 — Value: 0</title>
                <polygon points="90.63,43.53 75.22,50.71 90.63,57.90 106.04,50.71" fill="#fff5f5" stroke="#fff5f5" stroke-width="0.3" stroke-linejoin="round" fill-opacity="1" stroke-opacity="1" />
              </g>
<polygon class="iso-grid-cell" points="72.50,50.71 54.38,59.17 72.50,67.62 90.63,59.17" fill="none" stroke="#e1e4e8" stroke-width="0.5" />
<g class="iso-bar" data-col="5" data-row="1" data-value="0" style="animation-delay: 90ms; transform-origin: bottom;">
                <title>Series B, 05:00 — Value: 0</title>
                <polygon points="72.50,51.98 57.10,59.17 72.50,66.35 87.91,59.17" fill="#fff5f5" stroke="#fff5f5" stroke-width="0.3" stroke-linejoin="round" fill-opacity="1" stroke-opacity="1" />
              </g>
<polygon class="iso-grid-cell" points="108.76,50.71 90.63,59.17 108.76,67.62 126.88,59.17" fill="none" stroke="#e1e4e8" stroke-width="0.5" />
<g class="iso-bar" data-col="6" data-row="0" data-value="0" style="animation-delay: 90ms; transform-origin: bottom;">
                <title>Series A, 06:00 — Value: 0</title>
                <polygon points="108.76,51.98 93.35,59.17 108.76,66.35 124.16,59.17" fill="#fff5f5" stroke="#fff5f5" stroke-width="0.3" stroke-linejoin="round" fill-opacity="1" stroke-opacity="1" />
              </g>
<polygon class="iso-grid-cell" points="90.63,59.17 72.50,67.62 90.63,76.07 108.76,67.62" fill="none" stroke="#e1e4e8" stroke-width="0.5" />
<g class="iso-bar" data-col="6" data-row="1" data-value="0" style="animation-delay: 105ms; transform-origin: bottom;">
                <title>Series B, 06:00 — Value: 0</title>
                <polygon points="90.63,60.43 75.22,67.62 90.63,74.80 106.04,67.62" fill="#fff5f5" stroke="#fff5f5" stroke-width="0.3" stroke-linejoin="round" fill-opacity="1" stroke-opacity="1" />
              </g>
<polygon class="iso-grid-cell" points="126.88,59.17 108.76,67.62 126.88,76.07 145.01,67.62" fill="none" stroke="#e1e4e8" stroke-width="0.5" />
<g class="iso-bar" data-col="7" data-row="0" data-value="0" style="animation-delay: 105ms; transform-origin: bottom;">
                <title>Series A, 07:00 — Value: 0</title>
                <polygon points="126.88,60.43 111.48,67.62 126.88,74.80 142.29,67.62" fill="#fff5f5" stroke="#fff5f5" stroke-width="0.3" stroke-linejoin="round" fill-opacity="1" stroke-opacity="1" />
              </g>
<polygon class="iso-grid-cell" points="108.76,67.62 90.63,76.07 108.76,84.52 126.88,76.07" fill="none" stroke="#e1e4e8" stroke-width="0.5" />
<g class="iso-bar" data-col="7" data-row="1" data-value="0" style="animation-delay: 120ms; transform-origin: bottom;">
                <title>Series B, 07:00 — Value: 0</title>
                <polygon points="108.76,68.89 93.35,76.07 108.76,83.26 124.16,76.07" fill="#fff5f5" stroke="#fff5f5" stroke-width="0.3" stroke-linejoin="round" fill-opacity="1" stroke-opacity="1" />
              </g>
<polygon class="iso-grid-cell" points="145.01,67.62 126.88,76.07 145.01,84.52 163.14,76.07" fill="none" stroke="#e1e4e8" stroke-width="0.5" />
<g class="iso-bar" data-col="8" data-row="0" data-value="42" style="animation-delay: 120ms; transform-origin: bottom;">
        <title>Series A, 08:00 — Value: 42</title>
        <polygon class="iso-face-left" points="143.65,68.25 128.24,75.44 128.24,80.44 143.65,73.25" fill="#d79e63" stroke="#d79e63" stroke-width="0.3" stroke-linejoin="round" fill-opacity="1" stroke-opacity="1" /><polygon class="iso-face-right" points="161.78,76.71 146.37,83.89 146.37,88.89 161.78,81.71" fill="#b18251" stroke="#b18251" stroke-width="0.3" stroke-linejoin="round" fill-opacity="1" stroke-opacity="1" />
        <path class="iso-face-top" d="M 128.24,75.44 C 131.26,72.96 134.28,54.92 137.31,56.33 L 152.71,49.15 C 149.69,47.74 146.67,65.77 143.65,68.25 Z" fill="#fdba74" stroke="#fdba74" stroke-width="0.3" fill-opacity="1" stroke-opacity="1" />
        <path class="iso-face-right" d="M 128.24,80.44 L 128.24,75.44 C 131.26,72.96 134.28,54.92 137.31,56.33 L 137.31,61.33 C 134.28,59.92 131.26,77.96 128.24,80.44 Z" fill="#b18251" stroke="#b18251" stroke-width="0.3" fill-opacity="1" stroke-opacity="1" />
        <path class="iso-face-top" d="M 137.31,56.33 C 140.33,57.74 143.35,78.59 146.37,83.89 L 161.78,76.71 C 158.75,71.41 155.73,50.55 152.71,49.15 Z" fill="#fdba74" stroke="#fdba74" stroke-width="0.3" fill-opacity="1" stroke-opacity="1" />
        <path class="iso-face-right" d="M 137.31,61.33 L 137.31,56.33 C 140.33,57.74 143.35,78.59 146.37,83.89 L 146.37,88.89 C 143.35,83.59 140.33,62.74 137.31,61.33 Z" fill="#b18251" stroke="#b18251" stroke-width="0.3" fill-opacity="1" stroke-opacity="1" />
      </g>
<polygon class="iso-grid-cell" points="126.88,76.07 108.76,84.52 126.88,92.98 145.01,84.52" fill="none" stroke="#e1e4e8" stroke-width="0.5" />
<g class="iso-bar" data-col="8" data-row="1" data-value="0" style="animation-delay: 135ms; transform-origin: bottom;">
                <title>Series B, 08:00 — Value: 0</title>
                <polygon points="126.88,77.34 111.48,84.52 126.88,91.71 142.29,84.52" fill="#fff5f5" stroke="#fff5f5" stroke-width="0.3" stroke-linejoin="round" fill-opacity="1" stroke-opacity="1" />
              </g>
<polygon class="iso-grid-cell" points="163.14,76.07 145.01,84.52 163.14,92.98 181.26,84.52" fill="none" stroke="#e1e4e8" stroke-width="0.5" />
<g class="iso-bar" data-col="9" data-row="0" data-value="0" style="animation-delay: 135ms; transform-origin: bottom;">
                <title>Series A, 09:00 — Value: 0</title>
                <polygon points="163.14,77.34 147.73,84.52 163.14,91.71 178.54,84.52" fill="#fff5f5" stroke="#fff5f5" stroke-width="0.3" stroke-linejoin="round" fill-opacity="1" stroke-opacity="1" />
              </g>
<polygon class="iso-grid-cell" points="145.01,84.52 126.88,92.98 145.01,101.43 163.14,92.98" fill="none" stroke="#e1e4e8" stroke-width="0.5" />
<g class="iso-bar" data-col="9" data-row="1" data-value="0" style="animation-delay: 150ms; transform-origin: bottom;">
                <title>Series B, 09:00 — Value: 0</title>
                <polygon points="145.01,85.79 129.60,92.98 145.01,100.16 160.42,92.98" fill="#fff5f5" stroke="#fff5f5" stroke-width="0.3" stroke-linejoin="round" fill-opacity="1" stroke-opacity="1" />
              </g>
<polygon class="iso-grid-cell" points="181.26,84.52 163.14,92.98 181.26,101.43 199.39,92.98" fill="none" stroke="#e1e4e8" stroke-width="0.5" />
<g class="iso-bar" data-col="10" data-row="0" data-value="0" style="animation-delay: 150ms; transform-origin: bottom;">
                <title>Series A, 10:00 — Value: 0</title>
                <polygon points="181.26,85.79 165.85,92.98 181.26,100.16 196.67,92.98" fill="#fff5f5" stroke="#fff5f5" stroke-width="0.3" stroke-linejoin="round" fill-opacity="1" stroke-opacity="1" />
              </g>
<polygon class="iso-grid-cell" points="163.14,92.98 145.01,101.43 163.14,109.88 181.26,101.43" fill="none" stroke="#e1e4e8" stroke-width="0.5" />
<g class="iso-bar" data-col="10" data-row="1" data-value="60" style="animation-delay: 165ms; transform-origin: bottom;">
        <title>Series B, 10:00 — Value: 60</title>
        <polygon class="iso-face-left" points="161.78,93.61 146.37,100.79 146.37,105.79 161.78,98.61" fill="#c74b0a" stroke="#c74b0a" stroke-width="0.3" stroke-linejoin="round" fill-opacity="1" stroke-opacity="1" /><polygon class="iso-face-right" points="179.90,102.06 164.49,109.25 164.49,114.25 179.90,107.06" fill="#a43e08" stroke="#a43e08" stroke-width="0.3" stroke-linejoin="round" fill-opacity="1" stroke-opacity="1" />
        <path class="iso-face-top" d="M 146.37,100.79 C 149.39,96.65 152.41,70.28 155.43,71.69 L 170.84,64.50 C 167.82,63.09 164.80,89.46 161.78,93.61 Z" fill="#ea580c" stroke="#ea580c" stroke-width="0.3" fill-opacity="1" stroke-opacity="1" />
        <path class="iso-face-right" d="M 146.37,105.79 L 146.37,100.79 C 149.39,96.65 152.41,70.28 155.43,71.69 L 155.43,76.69 C 152.41,75.28 149.39,101.65 146.37,105.79 Z" fill="#a43e08" stroke="#a43e08" stroke-width="0.3" fill-opacity="1" stroke-opacity="1" />
        <path class="iso-face-top" d="M 155.43,71.69 C 158.45,73.10 161.47,102.28 164.49,109.25 L 179.90,102.06 C 176.88,95.10 173.86,65.91 170.84,64.50 Z" fill="#ea580c" stroke="#ea580c" stroke-width="0.3" fill-opacity="1" stroke-opacity="1" />
        <path class="iso-face-right" d="M 155.43,76.69 L 155.43,71.69 C 158.45,73.10 161.47,102.28 164.49,109.25 L 164.49,114.25 C 161.47,107.28 158.45,78.10 155.43,76.69 Z" fill="#a43e08" stroke="#a43e08" stroke-width="0.3" fill-opacity="1" stroke-opacity="1" />
      </g>
<polygon class="iso-grid-cell" points="199.39,92.98 181.26,101.43 199.39,109.88 217.51,101.43" fill="none" stroke="#e1e4e8" stroke-width="0.5" />
<g class="iso-bar" data-col="11" data-row="0" data-value="0" style="animation-delay: 165ms; transform-origin: bottom;">
                <title>Series A, 11:00 — Value: 0</title>
                <polygon points="199.39,94.24 183.98,101.43 199.39,108.61 214.79,101.43" fill="#fff5f5" stroke="#fff5f5" stroke-width="0.3" stroke-linejoin="round" fill-opacity="1" stroke-opacity="1" />
              </g>
<polygon class="iso-grid-cell" points="181.26,101.43 163.14,109.88 181.26,118.33 199.39,109.88" fill="none" stroke="#e1e4e8" stroke-width="0.5" />
<g class="iso-bar" data-col="11" data-row="1" data-value="0" style="animation-delay: 180ms; transform-origin: bottom;">
                <title>Series B, 11:00 — Value: 0</title>
                <polygon points="181.26,102.70 165.85,109.88 181.26,117.07 196.67,109.88" fill="#fff5f5" stroke="#fff5f5" stroke-width="0.3" stroke-linejoin="round" fill-opacity="1" stroke-opacity="1" />
              </g>
<polygon class="iso-grid-cell" points="217.51,101.43 199.39,109.88 217.51,118.33 235.64,109.88" fill="none" stroke="#e1e4e8" stroke-width="0.5" />
<g class="iso-bar" data-col="12" data-row="0" data-value="0" style="animation-delay: 180ms; transform-origin: bottom;">
                <title>Series A, 12:00 — Value: 0</title>
                <polygon points="217.51,102.70 202.11,109.88 217.51,117.07 232.92,109.88" fill="#fff5f5" stroke="#fff5f5" stroke-width="0.3" stroke-linejoin="round" fill-opacity="1" stroke-opacity="1" />
              </g>
<polygon class="iso-grid-cell" points="199.39,109.88 181.26,118.33 199.39,126.79 217.51,118.33" fill="none" stroke="#e1e4e8" stroke-width="0.5" />
<g class="iso-bar" data-col="12" data-row="1" data-value="0" style="animation-delay: 195ms; transform-origin: bottom;">
                <title>Series B, 12:00 — Value: 0</title>
                <polygon points="199.39,111.15 183.98,118.33 199.39,125.52 214.79,118.33" fill="#fff5f5" stroke="#fff5f5" stroke-width="0.3" stroke-linejoin="round" fill-opacity="1" stroke-opacity="1" />
              </g>
<polygon class="iso-grid-cell" points="235.64,109.88 217.51,118.33 235.64,126.79 253.77,118.33" fill="none" stroke="#e1e4e8" stroke-width="0.5" />
<g class="iso-bar" data-col="13" data-row="0" data-value="0" style="animation-delay: 195ms; transform-origin: bottom;">
                <title>Series A, 13:00 — Value: 0</title>
                <polygon points="235.64,111.15 220.23,118.33 235.64,125.52 251.05,118.33" fill="#fff5f5" stroke="#fff5f5" stroke-width="0.3" stroke-linejoin="round" fill-opacity="1" stroke-opacity="1" />
              </g>
<polygon class="iso-grid-cell" points="217.51,118.33 199.39,126.79 217.51,135.24 235.64,126.79" fill="none" stroke="#e1e4e8" stroke-width="0.5" />
<g class="iso-bar" data-col="13" data-row="1" data-value="0" style="animation-delay: 210ms; transform-origin: bottom;">
                <title>Series B, 13:00 — Value: 0</title>
                <polygon points="217.51,119.60 202.11,126.79 217.51,133.97 232.92,126.79" fill="#fff5f5" stroke="#fff5f5" stroke-width="0.3" stroke-linejoin="round" fill-opacity="1" stroke-opacity="1" />
              </g>
<polygon class="iso-grid-cell" points="253.77,118.33 235.64,126.79 253.77,135.24 271.89,126.79" fill="none" stroke="#e1e4e8" stroke-width="0.5" />
<g class="iso-bar" data-col="14" data-row="0" data-value="85" style="animation-delay: 210ms; transform-origin: bottom;">
        <title>Series A, 14:00 — Value: 85</title>
        <polygon class="iso-face-left" points="252.41,118.97 237.00,126.15 237.00,131.15 252.41,123.97" fill="#a5370a" stroke="#a5370a" stroke-width="0.3" stroke-linejoin="round" fill-opacity="1" stroke-opacity="1" /><polygon class="iso-face-right" points="270.53,127.42 255.13,134.60 255.13,139.60 270.53,132.42" fill="#882e08" stroke="#882e08" stroke-width="0.3" stroke-linejoin="round" fill-opacity="1" stroke-opacity="1" />
        <path class="iso-face-top" d="M 237.00,126.15 C 240.02,119.69 243.04,81.75 246.06,83.16 L 261.47,75.97 C 258.45,74.56 255.43,112.51 252.41,118.97 Z" fill="#c2410c" stroke="#c2410c" stroke-width="0.3" fill-opacity="1" stroke-opacity="1" />
        <path class="iso-face-right" d="M 237.00,131.15 L 237.00,126.15 C 240.02,119.69 243.04,81.75 246.06,83.16 L 246.06,88.16 C 243.04,86.75 240.02,124.69 237.00,131.15 Z" fill="#882e08" stroke="#882e08" stroke-width="0.3" fill-opacity="1" stroke-opacity="1" />
        <path class="iso-face-top" d="M 246.06,83.16 C 249.08,84.56 252.10,125.32 255.13,134.60 L 270.53,127.42 C 267.51,118.14 264.49,77.38 261.47,75.97 Z" fill="#c2410c" stroke="#c2410c" stroke-width="0.3" fill-opacity="1" stroke-opacity="1" />
        <path class="iso-face-right" d="M 246.06,88.16 L 246.06,83.16 C 249.08,84.56 252.10,125.32 255.13,134.60 L 255.13,139.60 C 252.10,130.32 249.08,89.56 246.06,88.16 Z" fill="#882e08" stroke="#882e08" stroke-width="0.3" fill-opacity="1" stroke-opacity="1" />
      </g>
<polygon class="iso-grid-cell" points="235.64,126.79 217.51,135.24 235.64,143.69 253.77,135.24" fill="none" stroke="#e1e4e8" stroke-width="0.5" />
<g class="iso-bar" data-col="14" data-row="1" data-value="0" style="animation-delay: 225ms; transform-origin: bottom;">
                <title>Series B, 14:00 — Value: 0</title>
                <polygon points="235.64,128.05 220.23,135.24 235.64,142.42 251.05,135.24" fill="#fff5f5" stroke="#fff5f5" stroke-width="0.3" stroke-linejoin="round" fill-opacity="1" stroke-opacity="1" />
              </g>
<polygon class="iso-grid-cell" points="271.89,126.79 253.77,135.24 271.89,143.69 290.02,135.24" fill="none" stroke="#e1e4e8" stroke-width="0.5" />
<g class="iso-bar" data-col="15" data-row="0" data-value="0" style="animation-delay: 225ms; transform-origin: bottom;">
                <title>Series A, 15:00 — Value: 0</title>
                <polygon points="271.89,128.05 256.49,135.24 271.89,142.42 287.30,135.24" fill="#fff5f5" stroke="#fff5f5" stroke-width="0.3" stroke-linejoin="round" fill-opacity="1" stroke-opacity="1" />
              </g>
<polygon class="iso-grid-cell" points="253.77,135.24 235.64,143.69 253.77,152.14 271.89,143.69" fill="none" stroke="#e1e4e8" stroke-width="0.5" />
<g class="iso-bar" data-col="15" data-row="1" data-value="0" style="animation-delay: 240ms; transform-origin: bottom;">
                <title>Series B, 15:00 — Value: 0</title>
                <polygon points="253.77,136.51 238.36,143.69 253.77,150.87 269.17,143.69" fill="#fff5f5" stroke="#fff5f5" stroke-width="0.3" stroke-linejoin="round" fill-opacity="1" stroke-opacity="1" />
              </g>
<polygon class="iso-grid-cell" points="290.02,135.24 271.89,143.69 290.02,152.14 308.14,143.69" fill="none" stroke="#e1e4e8" stroke-width="0.5" />
<g class="iso-bar" data-col="16" data-row="0" data-value="0" style="animation-delay: 240ms; transform-origin: bottom;">
                <title>Series A, 16:00 — Value: 0</title>
                <polygon points="290.02,136.51 274.61,143.69 290.02,150.87 305.43,143.69" fill="#fff5f5" stroke="#fff5f5" stroke-width="0.3" stroke-linejoin="round" fill-opacity="1" stroke-opacity="1" />
              </g>
<polygon class="iso-grid-cell" points="271.89,143.69 253.77,152.14 271.89,160.59 290.02,152.14" fill="none" stroke="#e1e4e8" stroke-width="0.5" />
<g class="iso-bar" data-col="16" data-row="1" data-value="90" style="animation-delay: 255ms; transform-origin: bottom;">
        <title>Series B, 16:00 — Value: 90</title>
        <polygon class="iso-face-left" points="270.53,144.32 255.13,151.51 255.13,156.51 270.53,149.32" fill="#a5370a" stroke="#a5370a" stroke-width="0.3" stroke-linejoin="round" fill-opacity="1" stroke-opacity="1" /><polygon class="iso-face-right" points="288.66,152.78 273.25,159.96 273.25,164.96 288.66,157.78" fill="#882e08" stroke="#882e08" stroke-width="0.3" stroke-linejoin="round" fill-opacity="1" stroke-opacity="1" />
        <path class="iso-face-top" d="M 255.13,151.51 C 258.15,144.58 261.17,104.33 264.19,105.73 L 279.60,98.55 C 276.57,97.14 273.55,137.40 270.53,144.32 Z" fill="#c2410c" stroke="#c2410c" stroke-width="0.3" fill-opacity="1" stroke-opacity="1" />
        <path class="iso-face-right" d="M 255.13,156.51 L 255.13,151.51 C 258.15,144.58 261.17,104.33 264.19,105.73 L 264.19,110.73 C 261.17,109.33 258.15,149.58 255.13,156.51 Z" fill="#882e08" stroke="#882e08" stroke-width="0.3" fill-opacity="1" stroke-opacity="1" />
        <path class="iso-face-top" d="M 264.19,105.73 C 267.21,107.14 270.23,150.22 273.25,159.96 L 288.66,152.78 C 285.64,143.03 282.62,99.96 279.60,98.55 Z" fill="#c2410c" stroke="#c2410c" stroke-width="0.3" fill-opacity="1" stroke-opacity="1" />
        <path class="iso-face-right" d="M 264.19,110.73 L 264.19,105.73 C 267.21,107.14 270.23,150.22 273.25,159.96 L 273.25,164.96 C 270.23,155.22 267.21,112.14 264.19,110.73 Z" fill="#882e08" stroke="#882e08" stroke-width="0.3" fill-opacity="1" stroke-opacity="1" />
      </g>
<polygon class="iso-grid-cell" points="308.14,143.69 290.02,152.14 308.14,160.59 326.27,152.14" fill="none" stroke="#e1e4e8" stroke-width="0.5" />
<g class="iso-bar" data-col="17" data-row="0" data-value="0" style="animation-delay: 255ms; transform-origin: bottom;">
                <title>Series A, 17:00 — Value: 0</title>
                <polygon points="308.14,144.96 292.74,152.14 308.14,159.33 323.55,152.14" fill="#fff5f5" stroke="#fff5f5" stroke-width="0.3" stroke-linejoin="round" fill-opacity="1" stroke-opacity="1" />
              </g>
<polygon class="iso-grid-cell" points="290.02,152.14 271.89,160.59 290.02,169.05 308.14,160.59" fill="none" stroke="#e1e4e8" stroke-width="0.5" />
<g class="iso-bar" data-col="17" data-row="1" data-value="0" style="animation-delay: 270ms; transform-origin: bottom;">
                <title>Series B, 17:00 — Value: 0</title>
                <polygon points="290.02,153.41 274.61,160.59 290.02,167.78 305.43,160.59" fill="#fff5f5" stroke="#fff5f5" stroke-width="0.3" stroke-linejoin="round" fill-opacity="1" stroke-opacity="1" />
              </g>
<polygon class="iso-grid-cell" points="326.27,152.14 308.14,160.59 326.27,169.05 344.40,160.59" fill="none" stroke="#e1e4e8" stroke-width="0.5" />
<g class="iso-bar" data-col="18" data-row="0" data-value="0" style="animation-delay: 270ms; transform-origin: bottom;">
                <title>Series A, 18:00 — Value: 0</title>
                <polygon points="326.27,153.41 310.86,160.59 326.27,167.78 341.68,160.59" fill="#fff5f5" stroke="#fff5f5" stroke-width="0.3" stroke-linejoin="round" fill-opacity="1" stroke-opacity="1" />
              </g>
<polygon class="iso-grid-cell" points="308.14,160.59 290.02,169.05 308.14,177.50 326.27,169.05" fill="none" stroke="#e1e4e8" stroke-width="0.5" />
<g class="iso-bar" data-col="18" data-row="1" data-value="0" style="animation-delay: 285ms; transform-origin: bottom;">
                <title>Series B, 18:00 — Value: 0</title>
                <polygon points="308.14,161.86 292.74,169.05 308.14,176.23 323.55,169.05" fill="#fff5f5" stroke="#fff5f5" stroke-width="0.3" stroke-linejoin="round" fill-opacity="1" stroke-opacity="1" />
              </g>
<polygon class="iso-grid-cell" points="344.40,160.59 326.27,169.05 344.40,177.50 362.52,169.05" fill="none" stroke="#e1e4e8" stroke-width="0.5" />
<g class="iso-bar" data-col="19" data-row="0" data-value="0" style="animation-delay: 285ms; transform-origin: bottom;">
                <title>Series A, 19:00 — Value: 0</title>
                <polygon points="344.40,161.86 328.99,169.05 344.40,176.23 359.80,169.05" fill="#fff5f5" stroke="#fff5f5" stroke-width="0.3" stroke-linejoin="round" fill-opacity="1" stroke-opacity="1" />
              </g>
<polygon class="iso-grid-cell" points="326.27,169.05 308.14,177.50 326.27,185.95 344.40,177.50" fill="none" stroke="#e1e4e8" stroke-width="0.5" />
<g class="iso-bar" data-col="19" data-row="1" data-value="0" style="animation-delay: 300ms; transform-origin: bottom;">
                <title>Series B, 19:00 — Value: 0</title>
                <polygon points="326.27,170.32 310.86,177.50 326.27,184.68 341.68,177.50" fill="#fff5f5" stroke="#fff5f5" stroke-width="0.3" stroke-linejoin="round" fill-opacity="1" stroke-opacity="1" />
              </g>
<polygon class="iso-grid-cell" points="362.52,169.05 344.40,177.50 362.52,185.95 380.65,177.50" fill="none" stroke="#e1e4e8" stroke-width="0.5" />
<g class="iso-bar" data-col="20" data-row="0" data-value="32" style="animation-delay: 300ms; transform-origin: bottom;">
        <title>Series A, 20:00 — Value: 32</title>
        <polygon class="iso-face-left" points="361.16,169.68 345.76,176.87 345.76,181.87 361.16,174.68" fill="#d79e63" stroke="#d79e63" stroke-width="0.3" stroke-linejoin="round" fill-opacity="1" stroke-opacity="1" /><polygon class="iso-face-right" points="379.29,178.13 363.88,185.32 363.88,190.32 379.29,183.13" fill="#b18251" stroke="#b18251" stroke-width="0.3" stroke-linejoin="round" fill-opacity="1" stroke-opacity="1" />
        <path class="iso-face-top" d="M 345.76,176.87 C 348.78,175.31 351.80,161.91 354.82,163.31 L 370.23,156.13 C 367.21,154.72 364.18,168.13 361.16,169.68 Z" fill="#fdba74" stroke="#fdba74" stroke-width="0.3" fill-opacity="1" stroke-opacity="1" />
        <path class="iso-face-right" d="M 345.76,181.87 L 345.76,176.87 C 348.78,175.31 351.80,161.91 354.82,163.31 L 354.82,168.31 C 351.80,166.91 348.78,180.31 345.76,181.87 Z" fill="#b18251" stroke="#b18251" stroke-width="0.3" fill-opacity="1" stroke-opacity="1" />
        <path class="iso-face-top" d="M 354.82,163.31 C 357.84,164.72 360.86,180.95 363.88,185.32 L 379.29,178.13 C 376.27,173.76 373.25,157.54 370.23,156.13 Z" fill="#fdba74" stroke="#fdba74" stroke-width="0.3" fill-opacity="1" stroke-opacity="1" />
        <path class="iso-face-right" d="M 354.82,168.31 L 354.82,163.31 C 357.84,164.72 360.86,180.95 363.88,185.32 L 363.88,190.32 C 360.86,185.95 357.84,169.72 354.82,168.31 Z" fill="#b18251" stroke="#b18251" stroke-width="0.3" fill-opacity="1" stroke-opacity="1" />
      </g>
<polygon class="iso-grid-cell" points="344.40,177.50 326.27,185.95 344.40,194.40 362.52,185.95" fill="none" stroke="#e1e4e8" stroke-width="0.5" />
<g class="iso-bar" data-col="20" data-row="1" data-value="0" style="animation-delay: 315ms; transform-origin: bottom;">
                <title>Series B, 20:00 — Value: 0</title>
                <polygon points="344.40,178.77 328.99,185.95 344.40,193.14 359.80,185.95" fill="#fff5f5" stroke="#fff5f5" stroke-width="0.3" stroke-linejoin="round" fill-opacity="1" stroke-opacity="1" />
              </g>
<polygon class="iso-grid-cell" points="380.65,177.50 362.52,185.95 380.65,194.40 398.78,185.95" fill="none" stroke="#e1e4e8" stroke-width="0.5" />
<g class="iso-bar" data-col="21" data-row="0" data-value="0" style="animation-delay: 315ms; transform-origin: bottom;">
                <title>Series A, 21:00 — Value: 0</title>
                <polygon points="380.65,178.77 365.24,185.95 380.65,193.14 396.06,185.95" fill="#fff5f5" stroke="#fff5f5" stroke-width="0.3" stroke-linejoin="round" fill-opacity="1" stroke-opacity="1" />
              </g>
<polygon class="iso-grid-cell" points="362.52,185.95 344.40,194.40 362.52,202.86 380.65,194.40" fill="none" stroke="#e1e4e8" stroke-width="0.5" />
<g class="iso-bar" data-col="21" data-row="1" data-value="0" style="animation-delay: 330ms; transform-origin: bottom;">
                <title>Series B, 21:00 — Value: 0</title>
                <polygon points="362.52,187.22 347.12,194.40 362.52,201.59 377.93,194.40" fill="#fff5f5" stroke="#fff5f5" stroke-width="0.3" stroke-linejoin="round" fill-opacity="1" stroke-opacity="1" />
              </g>
<polygon class="iso-grid-cell" points="398.78,185.95 380.65,194.40 398.78,202.86 416.90,194.40" fill="none" stroke="#e1e4e8" stroke-width="0.5" />
<g class="iso-bar" data-col="22" data-row="0" data-value="0" style="animation-delay: 330ms; transform-origin: bottom;">
                <title>Series A, 22:00 — Value: 0</title>
                <polygon points="398.78,187.22 383.37,194.40 398.78,201.59 414.18,194.40" fill="#fff5f5" stroke="#fff5f5" stroke-width="0.3" stroke-linejoin="round" fill-opacity="1" stroke-opacity="1" />
              </g>
<polygon class="iso-grid-cell" points="380.65,194.40 362.52,202.86 380.65,211.31 398.78,202.86" fill="none" stroke="#e1e4e8" stroke-width="0.5" />
<g class="iso-bar" data-col="22" data-row="1" data-value="45" style="animation-delay: 345ms; transform-origin: bottom;">
        <title>Series B, 22:00 — Value: 45</title>
        <polygon class="iso-face-left" points="379.29,195.04 363.88,202.22 363.88,207.22 379.29,200.04" fill="#d46213" stroke="#d46213" stroke-width="0.3" stroke-linejoin="round" fill-opacity="1" stroke-opacity="1" /><polygon class="iso-face-right" points="397.42,203.49 382.01,210.68 382.01,215.68 397.42,208.49" fill="#ae510f" stroke="#ae510f" stroke-width="0.3" stroke-linejoin="round" fill-opacity="1" stroke-opacity="1" />
        <path class="iso-face-top" d="M 363.88,202.22 C 366.90,199.46 369.92,180.04 372.95,181.45 L 388.35,174.26 C 385.33,172.86 382.31,192.28 379.29,195.04 Z" fill="#f97316" stroke="#f97316" stroke-width="0.3" fill-opacity="1" stroke-opacity="1" />
        <path class="iso-face-right" d="M 363.88,207.22 L 363.88,202.22 C 366.90,199.46 369.92,180.04 372.95,181.45 L 372.95,186.45 C 369.92,185.04 366.90,204.46 363.88,207.22 Z" fill="#ae510f" stroke="#ae510f" stroke-width="0.3" fill-opacity="1" stroke-opacity="1" />
        <path class="iso-face-top" d="M 372.95,181.45 C 375.97,182.86 378.99,205.10 382.01,210.68 L 397.42,203.49 C 394.39,197.92 391.37,175.67 388.35,174.26 Z" fill="#f97316" stroke="#f97316" stroke-width="0.3" fill-opacity="1" stroke-opacity="1" />
        <path class="iso-face-right" d="M 372.95,186.45 L 372.95,181.45 C 375.97,182.86 378.99,205.10 382.01,210.68 L 382.01,215.68 C 378.99,210.10 375.97,187.86 372.95,186.45 Z" fill="#ae510f" stroke="#ae510f" stroke-width="0.3" fill-opacity="1" stroke-opacity="1" />
      </g>
<polygon class="iso-grid-cell" points="416.90,194.40 398.78,202.86 416.90,211.31 435.03,202.86" fill="none" stroke="#e1e4e8" stroke-width="0.5" />
<g class="iso-bar" data-col="23" data-row="0" data-value="0" style="animation-delay: 345ms; transform-origin: bottom;">
                <title>Series A, 23:00 — Value: 0</title>
                <polygon points="416.90,195.67 401.49,202.86 416.90,210.04 432.31,202.86" fill="#fff5f5" stroke="#fff5f5" stroke-width="0.3" stroke-linejoin="round" fill-opacity="1" stroke-opacity="1" />
              </g>
<polygon class="iso-grid-cell" points="398.78,202.86 380.65,211.31 398.78,219.76 416.90,211.31" fill="none" stroke="#e1e4e8" stroke-width="0.5" />
<g class="iso-bar" data-col="23" data-row="1" data-value="0" style="animation-delay: 360ms; transform-origin: bottom;">
                <title>Series B, 23:00 — Value: 0</title>
                <polygon points="398.78,204.12 383.37,211.31 398.78,218.49 414.18,211.31" fill="#fff5f5" stroke="#fff5f5" stroke-width="0.3" stroke-linejoin="round" fill-opacity="1" stroke-opacity="1" />
              </g>
<g class="iso-row-labels"><text x="450.09" y="211.05" fill="#57606a" font-size="9" font-family="sans-serif" text-anchor="start">Series A</text>
<text x="431.96" y="219.50" fill="#57606a" font-size="9" font-family="sans-serif" text-anchor="start">Series B</text></g>
    </g>
  </svg>