<svg xmlns="http://www.w3.org/2000/svg" viewBox="-174.71 -78.50 304.77 218.50" width="100%" height="100%">
    <!-- Generated with MLC Isometric 3D Heatmap Library -->
    <metadata>
    <rdf:RDF xmlns:rdf="http://www.w3.org/1999/02/22-rdf-syntax-ns#"
             xmlns:dc="http://purl.org/dc/elements/1.1/">
      <rdf:Description rdf:about="">
        <dc:creator>Michael Lechner</dc:creator>
        <dc:date>2026-06-16</dc:date>
        <dc:title>June 2026 Monthly Tracker — Mixed Shapes per Series (Row)</dc:title>
        <dc:description>Generated with MLC Isometric 3D Heatmap Library</dc:description>
      </rdf:Description>
    </rdf:RDF>
  </metadata>
    <style>
        @keyframes iso-grow {
          from {
            transform: scaleY(0);
          }
          to {
            transform: scaleY(1);
          }
        }
        .iso-bar {
          transform-box: fill-box;
          animation: iso-grow 0.6s cubic-bezier(0.16, 1, 0.3, 1) both;
          transition: transform 0.2s cubic-bezier(0.25, 0.46, 0.45, 0.94), filter 0.2s ease;
          cursor: pointer;
        }
        .iso-bar:hover {
          filter: brightness(1.1) drop-shadow(0 4px 6px rgba(0, 0, 0, 0.2));
          transform: translateY(-3px) scaleY(1);
        }
        .iso-face-top, .iso-face-left, .iso-face-right, .iso-bridge-top, .iso-bridge-front {
          transition: fill 0.2s ease;
        }
      </style>
    <defs><linearGradient id="cyl-grad-fed7aa" x1="0%" y1="0%" x2="100%" y2="0%">
          <stop offset="0%" stop-color="#d8b791" stop-opacity="1" />
          <stop offset="35%" stop-color="#fed7aa" stop-opacity="1" />
          <stop offset="75%" stop-color="#b29777" stop-opacity="1" />
          <stop offset="100%" stop-color="#7f6c55" stop-opacity="1" />
        </linearGradient>
<linearGradient id="cyl-grad-c2410c" x1="0%" y1="0%" x2="100%" y2="0%">
          <stop offset="0%" stop-color="#a5370a" stop-opacity="1" />
          <stop offset="35%" stop-color="#c2410c" stop-opacity="1" />
          <stop offset="75%" stop-color="#882e08" stop-opacity="1" />
          <stop offset="100%" stop-color="#612106" stop-opacity="1" />
        </linearGradient>
<linearGradient id="cyl-grad-0ea5e9" x1="0%" y1="0%" x2="100%" y2="0%">
          <stop offset="0%" stop-color="#0c8cc6" stop-opacity="1" />
          <stop offset="35%" stop-color="#0ea5e9" stop-opacity="1" />
          <stop offset="75%" stop-color="#0a73a3" stop-opacity="1" />
          <stop offset="100%" stop-color="#075375" stop-opacity="1" />
        </linearGradient></defs>
    <text x="-22.32" y="-64.50" fill="#24292f" font-size="14" font-weight="bold" font-family="sans-serif" text-anchor="middle">June 2026 Monthly Tracker —</text>
<text x="-22.32" y="-46.50" fill="#24292f" font-size="14" font-weight="bold" font-family="sans-serif" text-anchor="middle">Mixed Shapes per Series</text>
<text x="-22.32" y="-28.50" fill="#24292f" font-size="14" font-weight="bold" font-family="sans-serif" text-anchor="middle">(Row)</text>
    <g>
      <g class="iso-col-labels"><text x="20.78" y="-10.50" fill="#57606a" font-size="9" font-family="sans-serif" text-anchor="middle">W1</text>
<text x="38.11" y="-0.50" fill="#57606a" font-size="9" font-family="sans-serif" text-anchor="middle">W2</text>
<text x="55.43" y="9.50" fill="#57606a" font-size="9" font-family="sans-serif" text-anchor="middle">W3</text>
<text x="72.75" y="19.50" fill="#57606a" font-size="9" font-family="sans-serif" text-anchor="middle">W4</text>
<text x="90.07" y="29.50" fill="#57606a" font-size="9" font-family="sans-serif" text-anchor="middle">W5</text></g>
<g class="iso-row-labels"><text x="-26.78" y="-7.80" fill="#57606a" font-size="9" font-family="sans-serif" text-anchor="end">Mon</text>
<text x="-44.11" y="2.20" fill="#57606a" font-size="9" font-family="sans-serif" text-anchor="end">Tue</text>
<text x="-61.43" y="12.20" fill="#57606a" font-size="9" font-family="sans-serif" text-anchor="end">Wed</text>
<text x="-78.75" y="22.20" fill="#57606a" font-size="9" font-family="sans-serif" text-anchor="end">Thu</text>
<text x="-96.07" y="32.20" fill="#57606a" font-size="9" font-family="sans-serif" text-anchor="end">Fri</text>
<text x="-113.39" y="42.20" fill="#57606a" font-size="9" font-family="sans-serif" text-anchor="end">Sat</text>
<text x="-130.71" y="52.20" fill="#57606a" font-size="9" font-family="sans-serif" text-anchor="end">Sun</text></g>
<polygon class="iso-grid-cell" points="0.00,0.00 -17.32,10.00 0.00,20.00 17.32,10.00" fill="none" stroke="#e1e4e8" stroke-width="0.5" />
<g class="iso-bar" data-col="0" data-row="0" data-value="3" style="animation-delay: 0ms; transform-origin: bottom;">
      <title>2026-06-01 — 3 units</title>
      <polygon class="iso-face-left" points="-14.72,2.00 0.00,10.50 0.00,18.50 -14.72,10.00" fill="#d8b791" stroke="#d8b791" stroke-width="0.3" stroke-linejoin="round" fill-opacity="1" stroke-opacity="1" />
      <polygon class="iso-face-right" points="0.00,10.50 14.72,2.00 14.72,10.00 0.00,18.50" fill="#b29777" stroke="#b29777" stroke-width="0.3" stroke-linejoin="round" fill-opacity="1" stroke-opacity="1" />
      <polygon class="iso-face-top" points="0.00,-6.50 -14.72,2.00 0.00,10.50 14.72,2.00" fill="#fed7aa" stroke="#fed7aa" stroke-width="0.3" stroke-linejoin="round" fill-opacity="1" stroke-opacity="1" />
    </g>
<polygon class="iso-grid-cell" points="-17.32,10.00 -34.64,20.00 -17.32,30.00 0.00,20.00" fill="none" stroke="#e1e4e8" stroke-width="0.5" />
<g class="iso-bar" data-col="0" data-row="1" data-value="3" style="animation-delay: 15ms; transform-origin: bottom;">
      <title>2026-06-02 — 3 units</title>
      <path d="M -24.68,12.00 L -24.68,20.00 A 7.36,4.25 0 0,0 -9.96,20.00 L -9.96,12.00 A 7.36,4.25 0 0,1 -24.68,12.00 Z" fill="url(#cyl-grad-fed7aa)" stroke="#bfa180" stroke-width="0.3" fill-opacity="1" stroke-opacity="1" />
      <ellipse cx="-17.32" cy="12.00" rx="7.36" ry="4.25" fill="#fed7aa" stroke="#fed7aa" stroke-width="0.3" fill-opacity="1" stroke-opacity="1" />
    </g>
<polygon class="iso-grid-cell" points="-34.64,20.00 -51.96,30.00 -34.64,40.00 -17.32,30.00" fill="none" stroke="#e1e4e8" stroke-width="0.5" />
<g class="iso-bar" data-col="0" data-row="2" data-value="15" style="animation-delay: 30ms; transform-origin: bottom;">
        <title>2026-06-03 — 15 units</title>
        <polygon class="iso-face-left" points="-35.94,20.75 -50.66,29.25 -50.66,29.25 -35.94,20.75" fill="#a5370a" stroke="#a5370a" stroke-width="0.3" stroke-linejoin="round" fill-opacity="1" stroke-opacity="1" />
        <path class="iso-face-top" d="M -50.66,29.25 C -47.78,24.25 -44.89,-7.42 -42.00,-5.75 L -27.28,-14.25 C -30.17,-15.92 -33.05,15.75 -35.94,20.75 Z" fill="#c2410c" stroke="#c2410c" stroke-width="0.3" fill-opacity="1" stroke-opacity="1" />
        <path class="iso-face-right" d="M -50.66,29.25 L -50.66,29.25 C -47.78,24.25 -44.89,-7.42 -42.00,-5.75 L -42.00,34.25 C -44.89,32.58 -47.78,30.92 -50.66,29.25 Z" fill="#882e08" stroke="#882e08" stroke-width="0.3" fill-opacity="1" stroke-opacity="1" />
        <path class="iso-face-top" d="M -42.00,-5.75 C -39.12,-4.08 -36.23,18.03 -33.34,29.92 L -18.62,21.42 C -21.51,9.53 -24.39,-12.58 -27.28,-14.25 Z" fill="#c2410c" stroke="#c2410c" stroke-width="0.3" fill-opacity="1" stroke-opacity="1" />
        <path class="iso-face-right" d="M -42.00,34.25 L -42.00,-5.75 C -39.12,-4.08 -36.23,18.03 -33.34,29.92 L -33.34,39.25 C -36.23,37.58 -39.12,35.92 -42.00,34.25 Z" fill="#882e08" stroke="#882e08" stroke-width="0.3" fill-opacity="1" stroke-opacity="1" />
      </g>
<polygon class="iso-grid-cell" points="-51.96,30.00 -69.28,40.00 -51.96,50.00 -34.64,40.00" fill="none" stroke="#e1e4e8" stroke-width="0.5" />
<g class="iso-bar" data-col="0" data-row="3" data-value="3" style="animation-delay: 45ms; transform-origin: bottom;">
        <title>2026-06-04 — 3 units</title>
        <polygon class="iso-face-left" points="-53.26,30.75 -67.98,39.25 -67.98,43.25 -53.26,34.75" fill="#d8b791" stroke="#d8b791" stroke-width="0.3" stroke-linejoin="round" fill-opacity="1" stroke-opacity="1" />
        <path class="iso-face-top" d="M -67.98,39.25 C -65.10,39.58 -62.21,34.58 -59.32,36.25 L -44.60,27.75 C -47.49,26.08 -50.37,31.08 -53.26,30.75 Z" fill="#fed7aa" stroke="#fed7aa" stroke-width="0.3" fill-opacity="1" stroke-opacity="1" />
        <path class="iso-face-right" d="M -67.98,43.25 L -67.98,39.25 C -65.10,39.58 -62.21,34.58 -59.32,36.25 L -59.32,40.25 C -62.21,38.58 -65.10,43.58 -67.98,43.25 Z" fill="#b29777" stroke="#b29777" stroke-width="0.3" fill-opacity="1" stroke-opacity="1" />
        <path class="iso-face-top" d="M -59.32,36.25 C -56.44,37.92 -53.55,39.58 -50.66,41.25 L -35.94,32.75 C -38.83,31.08 -41.71,29.42 -44.60,27.75 Z" fill="#fed7aa" stroke="#fed7aa" stroke-width="0.3" fill-opacity="1" stroke-opacity="1" />
        <path class="iso-face-right" d="M -59.32,40.25 L -59.32,36.25 C -56.44,37.92 -53.55,39.58 -50.66,41.25 L -50.66,45.25 C -53.55,43.58 -56.44,41.92 -59.32,40.25 Z" fill="#b29777" stroke="#b29777" stroke-width="0.3" fill-opacity="1" stroke-opacity="1" />
      </g>
<polygon class="iso-grid-cell" points="-69.28,40.00 -86.60,50.00 -69.28,60.00 -51.96,50.00" fill="none" stroke="#e1e4e8" stroke-width="0.5" />
<g class="iso-bar" data-col="0" data-row="4" data-value="-8" style="animation-delay: 60ms; transform-origin: top;">
      <title>2026-06-05 — -8 units</title>
      <polygon class="iso-face-left" points="-84.00,50.00 -69.28,58.50 -69.28,79.83 -84.00,71.33" fill="#0c8cc6" stroke="#0c8cc6" stroke-width="0.3" stroke-linejoin="round" fill-opacity="1" stroke-opacity="1" />
      <polygon class="iso-face-right" points="-69.28,58.50 -54.56,50.00 -54.56,71.33 -69.28,79.83" fill="#0a73a3" stroke="#0a73a3" stroke-width="0.3" stroke-linejoin="round" fill-opacity="1" stroke-opacity="1" />
      <polygon class="iso-face-top" points="-69.28,41.50 -84.00,50.00 -69.28,58.50 -54.56,50.00" fill="#0ea5e9" stroke="#0ea5e9" stroke-width="0.3" stroke-linejoin="round" fill-opacity="1" stroke-opacity="1" />
    </g>
<polygon class="iso-grid-cell" points="-86.60,50.00 -103.92,60.00 -86.60,70.00 -69.28,60.00" fill="none" stroke="#e1e4e8" stroke-width="0.5" />
<g class="iso-bar" data-col="0" data-row="5" data-value="15" style="animation-delay: 75ms; transform-origin: bottom;">
      <title>2026-06-06 — 15 units</title>
      <path d="M -93.96,20.00 L -93.96,60.00 A 7.36,4.25 0 0,0 -79.24,60.00 L -79.24,20.00 A 7.36,4.25 0 0,1 -93.96,20.00 Z" fill="url(#cyl-grad-c2410c)" stroke="#923109" stroke-width="0.3" fill-opacity="1" stroke-opacity="1" />
      <ellipse cx="-86.60" cy="20.00" rx="7.36" ry="4.25" fill="#c2410c" stroke="#c2410c" stroke-width="0.3" fill-opacity="1" stroke-opacity="1" />
    </g>
<polygon class="iso-grid-cell" points="-103.92,60.00 -121.24,70.00 -103.92,80.00 -86.60,70.00" fill="none" stroke="#e1e4e8" stroke-width="0.5" />
<g class="iso-bar" data-col="0" data-row="6" data-value="3" style="animation-delay: 90ms; transform-origin: bottom;">
        <title>2026-06-07 — 3 units</title>
        <polygon class="iso-face-left" points="-105.22,60.75 -119.94,69.25 -119.94,69.25 -105.22,60.75" fill="#d8b791" stroke="#d8b791" stroke-width="0.3" stroke-linejoin="round" fill-opacity="1" stroke-opacity="1" />
        <path class="iso-face-top" d="M -119.94,69.25 C -117.06,69.58 -114.17,64.58 -111.28,66.25 L -96.56,57.75 C -99.45,56.08 -102.34,61.08 -105.22,60.75 Z" fill="#fed7aa" stroke="#fed7aa" stroke-width="0.3" fill-opacity="1" stroke-opacity="1" />
        <path class="iso-face-right" d="M -119.94,69.25 L -119.94,69.25 C -117.06,69.58 -114.17,64.58 -111.28,66.25 L -111.28,74.25 C -114.17,72.58 -117.06,70.92 -119.94,69.25 Z" fill="#b29777" stroke="#b29777" stroke-width="0.3" fill-opacity="1" stroke-opacity="1" />
        <path class="iso-face-top" d="M -111.28,66.25 C -108.40,67.92 -105.51,69.58 -102.62,71.25 L -87.90,62.75 C -90.79,61.08 -93.68,59.42 -96.56,57.75 Z" fill="#fed7aa" stroke="#fed7aa" stroke-width="0.3" fill-opacity="1" stroke-opacity="1" />
        <path class="iso-face-right" d="M -111.28,74.25 L -111.28,66.25 C -108.40,67.92 -105.51,69.58 -102.62,71.25 L -102.62,79.25 C -105.51,77.58 -108.40,75.92 -111.28,74.25 Z" fill="#b29777" stroke="#b29777" stroke-width="0.3" fill-opacity="1" stroke-opacity="1" />
      </g>
<polygon class="iso-grid-cell" points="17.32,10.00 0.00,20.00 17.32,30.00 34.64,20.00" fill="none" stroke="#e1e4e8" stroke-width="0.5" />
<g class="iso-bar" data-col="1" data-row="0" data-value="3" style="animation-delay: 15ms; transform-origin: bottom;">
      <title>2026-06-08 — 3 units</title>
      <polygon class="iso-face-left" points="2.60,12.00 17.32,20.50 17.32,28.50 2.60,20.00" fill="#d8b791" stroke="#d8b791" stroke-width="0.3" stroke-linejoin="round" fill-opacity="1" stroke-opacity="1" />
      <polygon class="iso-face-right" points="17.32,20.50 32.04,12.00 32.04,20.00 17.32,28.50" fill="#b29777" stroke="#b29777" stroke-width="0.3" stroke-linejoin="round" fill-opacity="1" stroke-opacity="1" />
      <polygon class="iso-face-top" points="17.32,3.50 2.60,12.00 17.32,20.50 32.04,12.00" fill="#fed7aa" stroke="#fed7aa" stroke-width="0.3" stroke-linejoin="round" fill-opacity="1" stroke-opacity="1" />
    </g>
<polygon class="iso-grid-cell" points="0.00,20.00 -17.32,30.00 0.00,40.00 17.32,30.00" fill="none" stroke="#e1e4e8" stroke-width="0.5" />
<g class="iso-bar" data-col="1" data-row="1" data-value="15" style="animation-delay: 30ms; transform-origin: bottom;">
      <title>2026-06-09 — 15 units</title>
      <path d="M -7.36,-10.00 L -7.36,30.00 A 7.36,4.25 0 0,0 7.36,30.00 L 7.36,-10.00 A 7.36,4.25 0 0,1 -7.36,-10.00 Z" fill="url(#cyl-grad-c2410c)" stroke="#923109" stroke-width="0.3" fill-opacity="1" stroke-opacity="1" />
      <ellipse cx="0.00" cy="-10.00" rx="7.36" ry="4.25" fill="#c2410c" stroke="#c2410c" stroke-width="0.3" fill-opacity="1" stroke-opacity="1" />
    </g>
<polygon class="iso-grid-cell" points="-17.32,30.00 -34.64,40.00 -17.32,50.00 0.00,40.00" fill="none" stroke="#e1e4e8" stroke-width="0.5" />
<g class="iso-bar" data-col="1" data-row="2" data-value="-8" style="animation-delay: 45ms; transform-origin: top;">
        <title>2026-06-10 — -8 units</title>
        
        <path class="iso-face-right" d="M -18.62,30.75 L -18.62,21.42 C -15.73,33.31 -12.85,55.42 -9.96,57.08 L -9.96,35.75 Z" fill="#0a73a3" stroke="#0a73a3" stroke-width="0.3" fill-opacity="1" stroke-opacity="1" />
        <path class="iso-face-right" d="M -9.96,35.75 L -9.96,57.08 C -7.07,58.75 -4.19,50.64 -1.30,47.42 L -1.30,40.75 Z" fill="#0a73a3" stroke="#0a73a3" stroke-width="0.3" fill-opacity="1" stroke-opacity="1" />
        <path class="iso-face-top" d="M -33.34,29.92 C -30.46,41.81 -27.57,63.92 -24.68,65.58 L -9.96,57.08 C -12.85,55.42 -15.73,33.31 -18.62,21.42 Z" fill="#0ea5e9" stroke="#0ea5e9" stroke-width="0.3" fill-opacity="1" stroke-opacity="1" />
        <path class="iso-face-top" d="M -24.68,65.58 C -21.79,67.25 -18.91,59.14 -16.02,55.92 L -1.30,47.42 C -4.19,50.64 -7.07,58.75 -9.96,57.08 Z" fill="#0ea5e9" stroke="#0ea5e9" stroke-width="0.3" fill-opacity="1" stroke-opacity="1" />
        <path class="iso-face-top" d="M -33.34,39.25 C -30.46,40.92 -27.57,42.58 -24.68,44.25 L -9.96,35.75 C -12.85,34.08 -15.73,32.42 -18.62,30.75 Z" fill="#0ea5e9" stroke="#0ea5e9" stroke-width="0.3" fill-opacity="1" stroke-opacity="1" />
        <path class="iso-face-top" d="M -24.68,44.25 C -21.79,45.92 -18.91,47.58 -16.02,49.25 L -1.30,40.75 C -4.19,39.08 -7.07,37.42 -9.96,35.75 Z" fill="#0ea5e9" stroke="#0ea5e9" stroke-width="0.3" fill-opacity="1" stroke-opacity="1" />
        <path class="iso-face-right" d="M -33.34,39.25 L -33.34,29.92 C -30.46,41.81 -27.57,63.92 -24.68,65.58 L -24.68,44.25 Z" fill="#0a73a3" stroke="#0a73a3" stroke-width="0.3" fill-opacity="1" stroke-opacity="1" />
        <path class="iso-face-right" d="M -24.68,44.25 L -24.68,65.58 C -21.79,67.25 -18.91,59.14 -16.02,55.92 L -16.02,49.25 Z" fill="#0a73a3" stroke="#0a73a3" stroke-width="0.3" fill-opacity="1" stroke-opacity="1" />
      </g>
<polygon class="iso-grid-cell" points="-34.64,40.00 -51.96,50.00 -34.64,60.00 -17.32,50.00" fill="none" stroke="#e1e4e8" stroke-width="0.5" />
<g class="iso-bar" data-col="1" data-row="3" data-value="3" style="animation-delay: 60ms; transform-origin: bottom;">
        <title>2026-06-11 — 3 units</title>
        
        <path class="iso-face-top" d="M -50.66,41.25 C -47.78,42.92 -44.89,44.58 -42.00,46.25 L -27.28,37.75 C -30.17,36.08 -33.05,34.42 -35.94,32.75 Z" fill="#fed7aa" stroke="#fed7aa" stroke-width="0.3" fill-opacity="1" stroke-opacity="1" />
        <path class="iso-face-right" d="M -50.66,45.25 L -50.66,41.25 C -47.78,42.92 -44.89,44.58 -42.00,46.25 L -42.00,50.25 C -44.89,48.58 -47.78,46.92 -50.66,45.25 Z" fill="#b29777" stroke="#b29777" stroke-width="0.3" fill-opacity="1" stroke-opacity="1" />
        <path class="iso-face-top" d="M -42.00,46.25 C -39.12,47.92 -36.23,38.92 -33.34,35.25 L -18.62,26.75 C -21.51,30.42 -24.39,39.42 -27.28,37.75 Z" fill="#fed7aa" stroke="#fed7aa" stroke-width="0.3" fill-opacity="1" stroke-opacity="1" />
        <path class="iso-face-right" d="M -42.00,50.25 L -42.00,46.25 C -39.12,47.92 -36.23,38.92 -33.34,35.25 L -33.34,39.25 C -36.23,42.92 -39.12,51.92 -42.00,50.25 Z" fill="#b29777" stroke="#b29777" stroke-width="0.3" fill-opacity="1" stroke-opacity="1" />
      </g>
<polygon class="iso-grid-cell" points="-51.96,50.00 -69.28,60.00 -51.96,70.00 -34.64,60.00" fill="none" stroke="#e1e4e8" stroke-width="0.5" />
<g class="iso-bar" data-col="1" data-row="4" data-value="15" style="animation-delay: 75ms; transform-origin: bottom;">
      <title>2026-06-12 — 15 units</title>
      <polygon class="iso-face-left" points="-66.68,20.00 -51.96,28.50 -51.96,68.50 -66.68,60.00" fill="#a5370a" stroke="#a5370a" stroke-width="0.3" stroke-linejoin="round" fill-opacity="1" stroke-opacity="1" />
      <polygon class="iso-face-right" points="-51.96,28.50 -37.24,20.00 -37.24,60.00 -51.96,68.50" fill="#882e08" stroke="#882e08" stroke-width="0.3" stroke-linejoin="round" fill-opacity="1" stroke-opacity="1" />
      <polygon class="iso-face-top" points="-51.96,11.50 -66.68,20.00 -51.96,28.50 -37.24,20.00" fill="#c2410c" stroke="#c2410c" stroke-width="0.3" stroke-linejoin="round" fill-opacity="1" stroke-opacity="1" />
    </g>
<polygon class="iso-grid-cell" points="-69.28,60.00 -86.60,70.00 -69.28,80.00 -51.96,70.00" fill="none" stroke="#e1e4e8" stroke-width="0.5" />
<g class="iso-bar" data-col="1" data-row="5" data-value="3" style="animation-delay: 90ms; transform-origin: bottom;">
      <title>2026-06-13 — 3 units</title>
      <path d="M -76.64,62.00 L -76.64,70.00 A 7.36,4.25 0 0,0 -61.92,70.00 L -61.92,62.00 A 7.36,4.25 0 0,1 -76.64,62.00 Z" fill="url(#cyl-grad-fed7aa)" stroke="#bfa180" stroke-width="0.3" fill-opacity="1" stroke-opacity="1" />
      <ellipse cx="-69.28" cy="62.00" rx="7.36" ry="4.25" fill="#fed7aa" stroke="#fed7aa" stroke-width="0.3" fill-opacity="1" stroke-opacity="1" />
    </g>
<polygon class="iso-grid-cell" points="-86.60,70.00 -103.92,80.00 -86.60,90.00 -69.28,80.00" fill="none" stroke="#e1e4e8" stroke-width="0.5" />
<g class="iso-bar" data-col="1" data-row="6" data-value="3" style="animation-delay: 105ms; transform-origin: bottom;">
        <title>2026-06-14 — 3 units</title>
        
        <path class="iso-face-top" d="M -102.62,71.25 C -99.74,72.92 -96.85,74.58 -93.96,76.25 L -79.24,67.75 C -82.13,66.08 -85.01,64.42 -87.90,62.75 Z" fill="#fed7aa" stroke="#fed7aa" stroke-width="0.3" fill-opacity="1" stroke-opacity="1" />
        <path class="iso-face-right" d="M -102.62,79.25 L -102.62,71.25 C -99.74,72.92 -96.85,74.58 -93.96,76.25 L -93.96,84.25 C -96.85,82.58 -99.74,80.92 -102.62,79.25 Z" fill="#b29777" stroke="#b29777" stroke-width="0.3" fill-opacity="1" stroke-opacity="1" />
        <path class="iso-face-top" d="M -93.96,76.25 C -91.08,77.92 -88.19,68.92 -85.30,65.25 L -70.58,56.75 C -73.47,60.42 -76.35,69.42 -79.24,67.75 Z" fill="#fed7aa" stroke="#fed7aa" stroke-width="0.3" fill-opacity="1" stroke-opacity="1" />
        <path class="iso-face-right" d="M -93.96,84.25 L -93.96,76.25 C -91.08,77.92 -88.19,68.92 -85.30,65.25 L -85.30,89.25 C -88.19,87.58 -91.08,85.92 -93.96,84.25 Z" fill="#b29777" stroke="#b29777" stroke-width="0.3" fill-opacity="1" stroke-opacity="1" />
      </g>
<polygon class="iso-grid-cell" points="34.64,20.00 17.32,30.00 34.64,40.00 51.96,30.00" fill="none" stroke="#e1e4e8" stroke-width="0.5" />
<g class="iso-bar" data-col="2" data-row="0" data-value="15" style="animation-delay: 30ms; transform-origin: bottom;">
      <title>2026-06-15 — 15 units</title>
      <polygon class="iso-face-left" points="19.92,-10.00 34.64,-1.50 34.64,38.50 19.92,30.00" fill="#a5370a" stroke="#a5370a" stroke-width="0.3" stroke-linejoin="round" fill-opacity="1" stroke-opacity="1" />
      <polygon class="iso-face-right" points="34.64,-1.50 49.36,-10.00 49.36,30.00 34.64,38.50" fill="#882e08" stroke="#882e08" stroke-width="0.3" stroke-linejoin="round" fill-opacity="1" stroke-opacity="1" />
      <polygon class="iso-face-top" points="34.64,-18.50 19.92,-10.00 34.64,-1.50 49.36,-10.00" fill="#c2410c" stroke="#c2410c" stroke-width="0.3" stroke-linejoin="round" fill-opacity="1" stroke-opacity="1" />
    </g>
<polygon class="iso-grid-cell" points="17.32,30.00 0.00,40.00 17.32,50.00 34.64,40.00" fill="none" stroke="#e1e4e8" stroke-width="0.5" />
<g class="iso-bar" data-col="2" data-row="1" data-value="3" style="animation-delay: 45ms; transform-origin: bottom;">
      <title>2026-06-16 — 3 units</title>
      <path d="M 9.96,32.00 L 9.96,40.00 A 7.36,4.25 0 0,0 24.68,40.00 L 24.68,32.00 A 7.36,4.25 0 0,1 9.96,32.00 Z" fill="url(#cyl-grad-fed7aa)" stroke="#bfa180" stroke-width="0.3" fill-opacity="1" stroke-opacity="1" />
      <ellipse cx="17.32" cy="32.00" rx="7.36" ry="4.25" fill="#fed7aa" stroke="#fed7aa" stroke-width="0.3" fill-opacity="1" stroke-opacity="1" />
    </g>
<polygon class="iso-grid-cell" points="0.00,40.00 -17.32,50.00 0.00,60.00 17.32,50.00" fill="none" stroke="#e1e4e8" stroke-width="0.5" />
<g class="iso-bar" data-col="2" data-row="2" data-value="3" style="animation-delay: 60ms; transform-origin: bottom;">
        <title>2026-06-17 — 3 units</title>
        
        <path class="iso-face-top" d="M -16.02,55.92 C -13.13,52.69 -10.25,44.58 -7.36,46.25 L 7.36,37.75 C 4.47,36.08 1.59,44.19 -1.30,47.42 Z" fill="#fed7aa" stroke="#fed7aa" stroke-width="0.3" fill-opacity="1" stroke-opacity="1" />
        <path class="iso-face-right" d="M -16.02,49.25 L -16.02,55.92 C -13.13,52.69 -10.25,44.58 -7.36,46.25 L -7.36,54.25 C -10.25,52.58 -13.13,50.92 -16.02,49.25 Z" fill="#b29777" stroke="#b29777" stroke-width="0.3" fill-opacity="1" stroke-opacity="1" />
        <path class="iso-face-top" d="M -7.36,46.25 C -4.47,47.92 -1.59,38.92 1.30,35.25 L 16.02,26.75 C 13.13,30.42 10.25,39.42 7.36,37.75 Z" fill="#fed7aa" stroke="#fed7aa" stroke-width="0.3" fill-opacity="1" stroke-opacity="1" />
        <path class="iso-face-right" d="M -7.36,54.25 L -7.36,46.25 C -4.47,47.92 -1.59,38.92 1.30,35.25 L 1.30,59.25 C -1.59,57.58 -4.47,55.92 -7.36,54.25 Z" fill="#b29777" stroke="#b29777" stroke-width="0.3" fill-opacity="1" stroke-opacity="1" />
      </g>
<polygon class="iso-grid-cell" points="-17.32,50.00 -34.64,60.00 -17.32,70.00 0.00,60.00" fill="none" stroke="#e1e4e8" stroke-width="0.5" />
<g class="iso-bar" data-col="2" data-row="3" data-value="15" style="animation-delay: 75ms; transform-origin: bottom;">
        <title>2026-06-18 — 15 units</title>
        
        <path class="iso-face-top" d="M -33.34,35.25 C -30.46,31.58 -27.57,22.58 -24.68,24.25 L -9.96,15.75 C -12.85,14.08 -15.73,23.08 -18.62,26.75 Z" fill="#c2410c" stroke="#c2410c" stroke-width="0.3" fill-opacity="1" stroke-opacity="1" />
        <path class="iso-face-right" d="M -33.34,39.25 L -33.34,35.25 C -30.46,31.58 -27.57,22.58 -24.68,24.25 L -24.68,28.25 C -27.57,26.58 -30.46,35.58 -33.34,39.25 Z" fill="#882e08" stroke="#882e08" stroke-width="0.3" fill-opacity="1" stroke-opacity="1" />
        <path class="iso-face-top" d="M -24.68,24.25 C -21.79,25.92 -18.91,48.03 -16.02,59.92 L -1.30,51.42 C -4.19,39.53 -7.07,17.42 -9.96,15.75 Z" fill="#c2410c" stroke="#c2410c" stroke-width="0.3" fill-opacity="1" stroke-opacity="1" />
        <path class="iso-face-right" d="M -24.68,28.25 L -24.68,24.25 C -21.79,25.92 -18.91,48.03 -16.02,59.92 L -16.02,63.92 C -18.91,52.03 -21.79,29.92 -24.68,28.25 Z" fill="#882e08" stroke="#882e08" stroke-width="0.3" fill-opacity="1" stroke-opacity="1" />
      </g>
<polygon class="iso-grid-cell" points="-34.64,60.00 -51.96,70.00 -34.64,80.00 -17.32,70.00" fill="none" stroke="#e1e4e8" stroke-width="0.5" />
<g class="iso-bar" data-col="2" data-row="4" data-value="3" style="animation-delay: 90ms; transform-origin: bottom;">
      <title>2026-06-19 — 3 units</title>
      <polygon class="iso-face-left" points="-49.36,62.00 -34.64,70.50 -34.64,78.50 -49.36,70.00" fill="#d8b791" stroke="#d8b791" stroke-width="0.3" stroke-linejoin="round" fill-opacity="1" stroke-opacity="1" />
      <polygon class="iso-face-right" points="-34.64,70.50 -19.92,62.00 -19.92,70.00 -34.64,78.50" fill="#b29777" stroke="#b29777" stroke-width="0.3" stroke-linejoin="round" fill-opacity="1" stroke-opacity="1" />
      <polygon class="iso-face-top" points="-34.64,53.50 -49.36,62.00 -34.64,70.50 -19.92,62.00" fill="#fed7aa" stroke="#fed7aa" stroke-width="0.3" stroke-linejoin="round" fill-opacity="1" stroke-opacity="1" />
    </g>
<polygon class="iso-grid-cell" points="-51.96,70.00 -69.28,80.00 -51.96,90.00 -34.64,80.00" fill="none" stroke="#e1e4e8" stroke-width="0.5" />
<g class="iso-bar" data-col="2" data-row="5" data-value="-8" style="animation-delay: 105ms; transform-origin: top;">
      <title>2026-06-20 — -8 units</title>
      <path d="M -59.32,80.00 L -59.32,101.33 A 7.36,4.25 0 0,0 -44.60,101.33 L -44.60,80.00 A 7.36,4.25 0 0,1 -59.32,80.00 Z" fill="url(#cyl-grad-0ea5e9)" stroke="#0b7caf" stroke-width="0.3" fill-opacity="1" stroke-opacity="1" />
      <ellipse cx="-51.96" cy="80.00" rx="7.36" ry="4.25" fill="#0ea5e9" stroke="#0ea5e9" stroke-width="0.3" fill-opacity="1" stroke-opacity="1" />
    </g>
<polygon class="iso-grid-cell" points="-69.28,80.00 -86.60,90.00 -69.28,100.00 -51.96,90.00" fill="none" stroke="#e1e4e8" stroke-width="0.5" />
<g class="iso-bar" data-col="2" data-row="6" data-value="15" style="animation-delay: 120ms; transform-origin: bottom;">
        <title>2026-06-21 — 15 units</title>
        
        <path class="iso-face-top" d="M -85.30,65.25 C -82.42,61.58 -79.53,52.58 -76.64,54.25 L -61.92,45.75 C -64.81,44.08 -67.69,53.08 -70.58,56.75 Z" fill="#c2410c" stroke="#c2410c" stroke-width="0.3" fill-opacity="1" stroke-opacity="1" />
        <path class="iso-face-right" d="M -85.30,89.25 L -85.30,65.25 C -82.42,61.58 -79.53,52.58 -76.64,54.25 L -76.64,94.25 C -79.53,92.58 -82.42,90.92 -85.30,89.25 Z" fill="#882e08" stroke="#882e08" stroke-width="0.3" fill-opacity="1" stroke-opacity="1" />
        <path class="iso-face-top" d="M -76.64,54.25 C -73.76,55.92 -70.87,68.25 -67.98,75.25 L -53.26,66.75 C -56.15,59.75 -59.03,47.42 -61.92,45.75 Z" fill="#c2410c" stroke="#c2410c" stroke-width="0.3" fill-opacity="1" stroke-opacity="1" />
        <path class="iso-face-right" d="M -76.64,94.25 L -76.64,54.25 C -73.76,55.92 -70.87,68.25 -67.98,75.25 L -67.98,99.25 C -70.87,97.58 -73.76,95.92 -76.64,94.25 Z" fill="#882e08" stroke="#882e08" stroke-width="0.3" fill-opacity="1" stroke-opacity="1" />
      </g>
<polygon class="iso-grid-cell" points="51.96,30.00 34.64,40.00 51.96,50.00 69.28,40.00" fill="none" stroke="#e1e4e8" stroke-width="0.5" />
<g class="iso-bar" data-col="3" data-row="0" data-value="3" style="animation-delay: 45ms; transform-origin: bottom;">
      <title>2026-06-22 — 3 units</title>
      <polygon class="iso-face-left" points="37.24,32.00 51.96,40.50 51.96,48.50 37.24,40.00" fill="#d8b791" stroke="#d8b791" stroke-width="0.3" stroke-linejoin="round" fill-opacity="1" stroke-opacity="1" />
      <polygon class="iso-face-right" points="51.96,40.50 66.68,32.00 66.68,40.00 51.96,48.50" fill="#b29777" stroke="#b29777" stroke-width="0.3" stroke-linejoin="round" fill-opacity="1" stroke-opacity="1" />
      <polygon class="iso-face-top" points="51.96,23.50 37.24,32.00 51.96,40.50 66.68,32.00" fill="#fed7aa" stroke="#fed7aa" stroke-width="0.3" stroke-linejoin="round" fill-opacity="1" stroke-opacity="1" />
    </g>
<polygon class="iso-grid-cell" points="34.64,40.00 17.32,50.00 34.64,60.00 51.96,50.00" fill="none" stroke="#e1e4e8" stroke-width="0.5" />
<g class="iso-bar" data-col="3" data-row="1" data-value="3" style="animation-delay: 60ms; transform-origin: bottom;">
      <title>2026-06-23 — 3 units</title>
      <path d="M 27.28,42.00 L 27.28,50.00 A 7.36,4.25 0 0,0 42.00,50.00 L 42.00,42.00 A 7.36,4.25 0 0,1 27.28,42.00 Z" fill="url(#cyl-grad-fed7aa)" stroke="#bfa180" stroke-width="0.3" fill-opacity="1" stroke-opacity="1" />
      <ellipse cx="34.64" cy="42.00" rx="7.36" ry="4.25" fill="#fed7aa" stroke="#fed7aa" stroke-width="0.3" fill-opacity="1" stroke-opacity="1" />
    </g>
<polygon class="iso-grid-cell" points="17.32,50.00 0.00,60.00 17.32,70.00 34.64,60.00" fill="none" stroke="#e1e4e8" stroke-width="0.5" />
<g class="iso-bar" data-col="3" data-row="2" data-value="15" style="animation-delay: 75ms; transform-origin: bottom;">
        <title>2026-06-24 — 15 units</title>
        <polygon class="iso-face-right" points="33.34,60.75 18.62,69.25 18.62,69.25 33.34,60.75" fill="#882e08" stroke="#882e08" stroke-width="0.3" stroke-linejoin="round" fill-opacity="1" stroke-opacity="1" />
        <path class="iso-face-top" d="M 1.30,35.25 C 4.19,31.58 7.07,22.58 9.96,24.25 L 24.68,15.75 C 21.79,14.08 18.91,23.08 16.02,26.75 Z" fill="#c2410c" stroke="#c2410c" stroke-width="0.3" fill-opacity="1" stroke-opacity="1" />
        <path class="iso-face-right" d="M 1.30,59.25 L 1.30,35.25 C 4.19,31.58 7.07,22.58 9.96,24.25 L 9.96,64.25 C 7.07,62.58 4.19,60.92 1.30,59.25 Z" fill="#882e08" stroke="#882e08" stroke-width="0.3" fill-opacity="1" stroke-opacity="1" />
        <path class="iso-face-top" d="M 9.96,24.25 C 12.85,25.92 15.73,60.92 18.62,69.25 L 33.34,60.75 C 30.46,52.42 27.57,17.42 24.68,15.75 Z" fill="#c2410c" stroke="#c2410c" stroke-width="0.3" fill-opacity="1" stroke-opacity="1" />
        <path class="iso-face-right" d="M 9.96,64.25 L 9.96,24.25 C 12.85,25.92 15.73,60.92 18.62,69.25 L 18.62,69.25 C 15.73,67.58 12.85,65.92 9.96,64.25 Z" fill="#882e08" stroke="#882e08" stroke-width="0.3" fill-opacity="1" stroke-opacity="1" />
      </g>
<polygon class="iso-grid-cell" points="0.00,60.00 -17.32,70.00 0.00,80.00 17.32,70.00" fill="none" stroke="#e1e4e8" stroke-width="0.5" />
<g class="iso-bar" data-col="3" data-row="3" data-value="-8" style="animation-delay: 90ms; transform-origin: top;">
        <title>2026-06-25 — -8 units</title>
        <polygon class="iso-face-right" points="16.02,70.75 1.30,79.25 1.30,83.25 16.02,74.75" fill="#0a73a3" stroke="#0a73a3" stroke-width="0.3" stroke-linejoin="round" fill-opacity="1" stroke-opacity="1" />
        <path class="iso-face-top" d="M -16.02,59.92 C -13.13,71.81 -10.25,93.92 -7.36,95.58 L 7.36,87.08 C 4.47,85.42 1.59,63.31 -1.30,51.42 Z" fill="#0ea5e9" stroke="#0ea5e9" stroke-width="0.3" fill-opacity="1" stroke-opacity="1" />
        <path class="iso-face-right" d="M -16.02,63.92 L -16.02,59.92 C -13.13,71.81 -10.25,93.92 -7.36,95.58 L -7.36,99.58 C -10.25,97.92 -13.13,75.81 -16.02,63.92 Z" fill="#0a73a3" stroke="#0a73a3" stroke-width="0.3" fill-opacity="1" stroke-opacity="1" />
        <path class="iso-face-top" d="M -7.36,95.58 C -4.47,97.25 -1.59,81.14 1.30,79.25 L 16.02,70.75 C 13.13,72.64 10.25,88.75 7.36,87.08 Z" fill="#0ea5e9" stroke="#0ea5e9" stroke-width="0.3" fill-opacity="1" stroke-opacity="1" />
        <path class="iso-face-right" d="M -7.36,99.58 L -7.36,95.58 C -4.47,97.25 -1.59,81.14 1.30,79.25 L 1.30,83.25 C -1.59,85.14 -4.47,101.25 -7.36,99.58 Z" fill="#0a73a3" stroke="#0a73a3" stroke-width="0.3" fill-opacity="1" stroke-opacity="1" />
      </g>
<polygon class="iso-grid-cell" points="-17.32,70.00 -34.64,80.00 -17.32,90.00 0.00,80.00" fill="none" stroke="#e1e4e8" stroke-width="0.5" />
<g class="iso-bar" data-col="3" data-row="4" data-value="3" style="animation-delay: 105ms; transform-origin: bottom;">
      <title>2026-06-26 — 3 units</title>
      <polygon class="iso-face-left" points="-32.04,72.00 -17.32,80.50 -17.32,88.50 -32.04,80.00" fill="#d8b791" stroke="#d8b791" stroke-width="0.3" stroke-linejoin="round" fill-opacity="1" stroke-opacity="1" />
      <polygon class="iso-face-right" points="-17.32,80.50 -2.60,72.00 -2.60,80.00 -17.32,88.50" fill="#b29777" stroke="#b29777" stroke-width="0.3" stroke-linejoin="round" fill-opacity="1" stroke-opacity="1" />
      <polygon class="iso-face-top" points="-17.32,63.50 -32.04,72.00 -17.32,80.50 -2.60,72.00" fill="#fed7aa" stroke="#fed7aa" stroke-width="0.3" stroke-linejoin="round" fill-opacity="1" stroke-opacity="1" />
    </g>
<polygon class="iso-grid-cell" points="-34.64,80.00 -51.96,90.00 -34.64,100.00 -17.32,90.00" fill="none" stroke="#e1e4e8" stroke-width="0.5" />
<g class="iso-bar" data-col="3" data-row="5" data-value="15" style="animation-delay: 120ms; transform-origin: bottom;">
      <title>2026-06-27 — 15 units</title>
      <path d="M -42.00,50.00 L -42.00,90.00 A 7.36,4.25 0 0,0 -27.28,90.00 L -27.28,50.00 A 7.36,4.25 0 0,1 -42.00,50.00 Z" fill="url(#cyl-grad-c2410c)" stroke="#923109" stroke-width="0.3" fill-opacity="1" stroke-opacity="1" />
      <ellipse cx="-34.64" cy="50.00" rx="7.36" ry="4.25" fill="#c2410c" stroke="#c2410c" stroke-width="0.3" fill-opacity="1" stroke-opacity="1" />
    </g>
<polygon class="iso-grid-cell" points="-51.96,90.00 -69.28,100.00 -51.96,110.00 -34.64,100.00" fill="none" stroke="#e1e4e8" stroke-width="0.5" />
<g class="iso-bar" data-col="3" data-row="6" data-value="3" style="animation-delay: 135ms; transform-origin: bottom;">
        <title>2026-06-28 — 3 units</title>
        <polygon class="iso-face-right" points="-35.94,100.75 -50.66,109.25 -50.66,109.25 -35.94,100.75" fill="#b29777" stroke="#b29777" stroke-width="0.3" stroke-linejoin="round" fill-opacity="1" stroke-opacity="1" />
        <path class="iso-face-top" d="M -67.98,75.25 C -65.10,82.25 -62.21,94.58 -59.32,96.25 L -44.60,87.75 C -47.49,86.08 -50.37,73.75 -53.26,66.75 Z" fill="#fed7aa" stroke="#fed7aa" stroke-width="0.3" fill-opacity="1" stroke-opacity="1" />
        <path class="iso-face-right" d="M -67.98,99.25 L -67.98,75.25 C -65.10,82.25 -62.21,94.58 -59.32,96.25 L -59.32,104.25 C -62.21,102.58 -65.10,100.92 -67.98,99.25 Z" fill="#b29777" stroke="#b29777" stroke-width="0.3" fill-opacity="1" stroke-opacity="1" />
        <path class="iso-face-top" d="M -59.32,96.25 C -56.44,97.92 -53.55,106.25 -50.66,109.25 L -35.94,100.75 C -38.83,97.75 -41.71,89.42 -44.60,87.75 Z" fill="#fed7aa" stroke="#fed7aa" stroke-width="0.3" fill-opacity="1" stroke-opacity="1" />
        <path class="iso-face-right" d="M -59.32,104.25 L -59.32,96.25 C -56.44,97.92 -53.55,106.25 -50.66,109.25 L -50.66,109.25 C -53.55,107.58 -56.44,105.92 -59.32,104.25 Z" fill="#b29777" stroke="#b29777" stroke-width="0.3" fill-opacity="1" stroke-opacity="1" />
      </g>
<polygon class="iso-grid-cell" points="69.28,40.00 51.96,50.00 69.28,60.00 86.60,50.00" fill="none" stroke="#e1e4e8" stroke-width="0.5" />
<g class="iso-bar" data-col="4" data-row="0" data-value="3" style="animation-delay: 60ms; transform-origin: bottom;">
      <title>2026-06-29 — 3 units</title>
      <polygon class="iso-face-left" points="54.56,42.00 69.28,50.50 69.28,58.50 54.56,50.00" fill="#d8b791" stroke="#d8b791" stroke-width="0.3" stroke-linejoin="round" fill-opacity="1" stroke-opacity="1" />
      <polygon class="iso-face-right" points="69.28,50.50 84.00,42.00 84.00,50.00 69.28,58.50" fill="#b29777" stroke="#b29777" stroke-width="0.3" stroke-linejoin="round" fill-opacity="1" stroke-opacity="1" />
      <polygon class="iso-face-top" points="69.28,33.50 54.56,42.00 69.28,50.50 84.00,42.00" fill="#fed7aa" stroke="#fed7aa" stroke-width="0.3" stroke-linejoin="round" fill-opacity="1" stroke-opacity="1" />
    </g>
<polygon class="iso-grid-cell" points="51.96,50.00 34.64,60.00 51.96,70.00 69.28,60.00" fill="none" stroke="#e1e4e8" stroke-width="0.5" />
<g class="iso-bar" data-col="4" data-row="1" data-value="15" style="animation-delay: 75ms; transform-origin: bottom;">
      <title>2026-06-30 — 15 units</title>
      <path d="M 44.60,20.00 L 44.60,60.00 A 7.36,4.25 0 0,0 59.32,60.00 L 59.32,20.00 A 7.36,4.25 0 0,1 44.60,20.00 Z" fill="url(#cyl-grad-c2410c)" stroke="#923109" stroke-width="0.3" fill-opacity="1" stroke-opacity="1" />
      <ellipse cx="51.96" cy="20.00" rx="7.36" ry="4.25" fill="#c2410c" stroke="#c2410c" stroke-width="0.3" fill-opacity="1" stroke-opacity="1" />
    </g>
<polygon class="iso-grid-cell" points="34.64,60.00 17.32,70.00 34.64,80.00 51.96,70.00" fill="none" stroke="#e1e4e8" stroke-width="0.5" />
<polygon class="iso-grid-cell" points="17.32,70.00 0.00,80.00 17.32,90.00 34.64,80.00" fill="none" stroke="#e1e4e8" stroke-width="0.5" />
<polygon class="iso-grid-cell" points="0.00,80.00 -17.32,90.00 0.00,100.00 17.32,90.00" fill="none" stroke="#e1e4e8" stroke-width="0.5" />
<polygon class="iso-grid-cell" points="-17.32,90.00 -34.64,100.00 -17.32,110.00 0.00,100.00" fill="none" stroke="#e1e4e8" stroke-width="0.5" />
<polygon class="iso-grid-cell" points="-34.64,100.00 -51.96,110.00 -34.64,120.00 -17.32,110.00" fill="none" stroke="#e1e4e8" stroke-width="0.5" />
    </g>
  </svg>